<svg xmlns="http://www.w3.org/2000/svg" xmlns:xlink="http://www.w3.org/1999/xlink" width="50" height="50" viewBox="0 0 50 50"><defs><path id="a" d="M1.7 1.8H48v46.3H1.7z"/></defs><clipPath id="b"><use xlink:href="#a" overflow="visible"/></clipPath><path clip-path="url(#b)" fill-rule="evenodd" clip-rule="evenodd" d="M42.6 21.3h-4c.3 1.1.5 2.3.5 3.6 0 7.9-6.4 14.2-14.2 14.2-7.9 0-14.2-6.4-14.2-14.2 0-1.2.2-2.4.5-3.6H7v19.6c0 1 .8 1.8 1.8 1.8h32c1 0 1.8-.8 1.8-1.8V21.3zm0-12.4c0-1-.8-1.8-1.8-1.8h-5.3c-1 0-1.8.8-1.8 1.8v5.3c0 1 .8 1.8 1.8 1.8h5.3c1 0 1.8-.8 1.8-1.8V8.9zM24.8 16c-4.9 0-8.9 4-8.9 8.9s4 8.9 8.9 8.9 8.9-4 8.9-8.9-4-8.9-8.9-8.9m17.8 32H7c-2.9 0-5.3-2.4-5.3-5.3V7.1c0-2.9 2.4-5.3 5.3-5.3h35.6c2.9 0 5.3 2.4 5.3 5.3v35.6c0 2.9-2.4 5.3-5.3 5.3"/></svg>