<svg xmlns="http://www.w3.org/2000/svg" width="50" height="50" viewBox="-2.7 -4.2 50 50" enable-background="new -2.7 -4.2 50 50"><path d="M25.5 26.5s19.7 6 21.7-5.5c0 0 0-.1 0-.2.6-3.5-1.6-6.8-4.8-7.4-3.2-.6-6.3 1.7-6.9 5.1 0 .8-1.6 9.6-10 8zM19.1 15S-.6 9-2.6 20.5c0 .1 0 .1 0 .2-.6 3.4 1.6 6.7 4.8 7.3 3.2.6 6.3-1.7 6.9-5.1.1-.7 1.7-9.5 10-7.9zm8.7 5.3S42.7 5.1 34.5-2.5c0 0-.1-.1-.1-.1C32-5 28.2-4.7 26.1-2c-2.1 2.7-1.9 6.7.6 9 .5.4 6.7 6.4 1.1 13.3zm-11.2 1S1.7 36.5 9.9 44.1c0 0 .1.1.1.1 2.5 2.3 6.2 2 8.4-.6 2.1-2.7 1.9-6.7-.6-9-.5-.4-6.7-6.4-1.2-13.3zm8.7-6.9S20.3-7 10.1-3c0 0-.1 0-.1 0-3.2 1.2-4.8 4.8-3.7 8.1 1.1 3.3 4.5 5 7.6 3.8.6-.1 8.5-3 11.4 5.5zm-5.5 12.8s5 21.4 15.2 17.4c0 0 .1 0 .1 0 3.1-1.2 4.7-4.8 3.6-8.1s-4.5-5-7.6-3.8c-.5.1-8.5 3-11.3-5.5z"/></svg>