<svg xmlns="http://www.w3.org/2000/svg" width="50" height="50" viewBox="0 0 50 50"><path d="M49.4 9.7c-1.8.8-3.7 1.3-5.8 1.6 2.1-1.2 3.7-3.2 4.4-5.5-1.9 1.1-4.1 2-6.4 2.4-1.7-2-4.3-3.2-7.2-3.2-5.5 0-10 4.5-10 10 0 .8.1 1.5.3 2.3C16.3 16.9 8.9 12.9 4 6.9c-.9 1.5-1.4 3.2-1.4 5 0 3.5 1.8 6.5 4.5 8.3-1.6-.1-3.2-.5-4.5-1.3 0 0 0 .1 0 .1 0 4.9 3.5 8.9 8 9.8-.8.2-1.7.4-2.6.4-.6 0-1.3-.1-1.9-.2 1.3 4 5 6.9 9.4 7C12 38.7 7.7 40.3 3 40.3c-.8 0-1.6 0-2.4-.1 4.4 2.8 9.7 4.5 15.3 4.5 18.4 0 28.5-15.3 28.5-28.5 0-.4 0-.9 0-1.3 2-1.4 3.7-3.2 5-5.2z"/></svg>